<?xml version="1.0" encoding="UTF-8"?>
<svg id="Layer_1" data-name="Layer 1" xmlns="http://www.w3.org/2000/svg" version="1.1" viewBox="0 0 144 43.8">
  <defs>
    <style>
      .cls-1 {
        fill: #fff;
        stroke-width: 0px;
      }
    </style>
  </defs>
  <g>
    <path class="cls-1" d="M51.8,15.3v13.6h-5.6v-11.7c0-3.5-1.7-5.3-6-5.3s-6.6,2-7.5,4.4v12.6h-5.6V.8c-.1,0,5.5,0,5.5,0v12.9c1.2-3.4,4.7-6.6,10-6.6s9.2,2.7,9.2,8.2Z"/>
    <path class="cls-1" d="M24.9,5.8h-9.5l.3.5v23h-5.6V6.3l.3-.5H.8V.8h24.1v5Z"/>
    <path class="cls-1" d="M57.6,6.9c-1.8,0-3-1.3-3-3s1.2-3,3-3,3,1.3,3,3-1.2,3-3,3Z"/>
    <rect class="cls-1" x="54.8" y="8.2" width="5.5" height="20.8"/>
    <path class="cls-1" d="M76,13h-1.6c-3.9,0-5.7,1.8-5.7,5.7v10.3h-5.5V8.2h5.5v2.8h0c1.2-1.9,3.2-3,6-3h1.2v5Z"/>
    <path class="cls-1" d="M88.4,29.4c-3.8,0-7.2-1.3-10.3-3.9l3.5-3.6c1.7,1.8,4.3,2.9,6.7,2.9s4.1-1,4.1-1.7-.3-1.2-2.7-1.8c-.5,0-3.3-.9-3.7-1-3.6-.9-7.2-2.3-7.2-6.1s3.4-6.2,9.3-6.2,7,1.2,9.3,3.5l-3.4,3.4c-1.5-1.5-3.6-2.3-5.9-2.3s-3.8,1.1-3.8,1.6c0,.9,1.1,1.2,3.7,1.8.4,0,2.9.8,3.3.9,4.4,1.1,6.7,2.9,6.7,6s-3.1,6.6-9.5,6.6Z"/>
    <path class="cls-1" d="M116.7,26.2c-2.1,2.1-4.2,3.1-6.8,3.1-4.8,0-7.1-2.5-7.1-7.3v-8.9l.3-.5h-3v-4.4h3l-.3-.5v-2.5l5.5-2.9v5.4l-.3.5h6.4v4.4h-6.4l.3.5v8.9c0,1.7.9,2.6,2.1,2.6s2-.5,3.1-1.6l3.2,3.2Z"/>
    <path class="cls-1" d="M143.4,8.2l-10.1,22.7c-1.4,3-3.9,5.1-7.2,5.1s-2.6-.2-3.9-.7c-.7-.3-1.2-.9-1.2-1.7v-2.3c0-.7.7-1.1,1.3-.8,1.4.6,2.4.8,3.3.8s2.1-.6,3.1-2.8l-9.9-20.3h6.1l5.4,11.6,1.1,3.1h0l.9-3.1,4.9-11.6h6.1Z"/>
  </g>
  <g>
    <path class="cls-1" d="M33.6,32.3l-4.7,10.4h-1.9l-4.7-10.4h2.4l2.9,6.6.3,1h0l.3-1,2.9-6.6h2.4Z"/>
    <path class="cls-1" d="M41.1,42.7h-2.2v-10.4h2.2v10.4Z"/>
    <path class="cls-1" d="M57.3,42.7h-2.4l-1.4-2.7c-.4-.8-1-1.2-2.2-1.2h-2.1l.2.2v3.7h-2.2v-10.4h5c2.1,0,4,1,4,3.2s-.8,2.1-1.8,2.5h0c.3.2.8.6,1,1.1l1.8,3.5ZM52.3,34.3h-3l.2.2v2.3l-.2.2h2.9c1.3,0,1.9-.6,1.9-1.3s-.6-1.3-1.8-1.3Z"/>
    <path class="cls-1" d="M72.4,42.7h-1.9v-1c-.6.7-1.8,1.1-3,1.1-3.5,0-5.5-2-5.5-5.2s2.1-5.4,5.6-5.4,3.2.5,4.3,1.6l-1.5,1.5c-.7-.8-1.7-1.2-2.8-1.2-2.3,0-3.4,1.3-3.4,3.5s1,3.3,3.3,3.3,2.7-.9,2.8-2.2l.2-.2h-3.6v-1.9h5.4v6.2Z"/>
    <path class="cls-1" d="M80.7,42.7h-2.2v-10.4h2.2v10.4Z"/>
    <path class="cls-1" d="M96.4,42.7h-1.8l-4.7-5.7-.8-1.2h0v6.9h-2.2v-10.4h1.8l4.7,5.7.7,1.2h0v-6.9h2.2v10.4Z"/>
    <path class="cls-1" d="M104.8,42.7h-2.2v-10.4h2.2v10.4Z"/>
    <path class="cls-1" d="M121.9,42.7h-2.4l-1.1-2.3v-.2c.1,0-5.1,0-5.1,0v.2c.1,0-.9,2.3-.9,2.3h-2.4l5-10.4h1.9l5,10.4ZM117.6,38.4l-.2-.2-1.1-2.2-.3-.9h0s-.3.9-.3.9l-1.1,2.2-.2.2h3.2Z"/>
  </g>
</svg>