<?xml version="1.0" encoding="UTF-8"?>
<svg id="Layer_1" data-name="Layer 1" xmlns="http://www.w3.org/2000/svg" version="1.1" viewBox="0 0 144 144">
  <defs>
    <style>
      .cls-1 {
        fill: #181818;
      }

      .cls-1, .cls-2 {
        stroke-width: 0px;
      }

      .cls-2 {
        fill: #f5a51d;
      }
    </style>
  </defs>
  <rect class="cls-2" x=".3" width="144" height="144"/>
  <g>
    <g>
      <path class="cls-1" d="M54.3,66.6v12.1h-4.9v-10.4c0-3.1-1.5-4.7-5.3-4.7s-5.8,1.8-6.7,3.9v11.2h-4.9v-24.9c-.1,0,4.8,0,4.8,0v11.5c1.1-3,4.2-5.8,8.9-5.8s8.1,2.4,8.1,7.2Z"/>
      <path class="cls-1" d="M30.4,58.2h-8.4l.3.5v20.4h-5v-20.4l.3-.5h-8.4v-4.4h21.3v4.4Z"/>
      <path class="cls-1" d="M59.4,57.6c-1.6,0-2.6-1.2-2.6-2.7s1.1-2.7,2.6-2.7,2.6,1.2,2.6,2.7-1.1,2.7-2.6,2.7ZM61.9,78.8h-4.9v-18.4h4.9v18.4Z"/>
      <path class="cls-1" d="M75.8,64.6h-1.5c-3.4,0-5,1.6-5,5.1v9.1h-4.9v-18.4h4.9v2.5h0c1.1-1.7,2.9-2.7,5.3-2.7h1.1v4.4Z"/>
      <path class="cls-1" d="M86.8,79.1c-3.4,0-6.4-1.1-9.1-3.5l3.1-3.2c1.5,1.6,3.8,2.6,5.9,2.6s3.6-.9,3.6-1.5-.3-1.1-2.4-1.6c-.4,0-2.9-.8-3.3-.8-3.2-.8-6.4-2.1-6.4-5.4s3-5.5,8.3-5.5,6.2,1,8.3,3.1l-3,3c-1.3-1.3-3.2-2.1-5.2-2.1s-3.4.9-3.4,1.5c0,.8,1,1.1,3.2,1.6.4,0,2.5.7,3,.8,3.9,1,5.9,2.5,5.9,5.3s-2.7,5.8-8.4,5.8Z"/>
      <path class="cls-1" d="M111.9,76.3c-1.9,1.9-3.7,2.8-6,2.8-4.2,0-6.3-2.2-6.3-6.5v-7.9l.2-.4h-2.7v-3.9h2.7l-.2-.4v-2.2l4.9-2.6v4.8l-.3.4h5.7v3.9h-5.7l.3.4v7.9c0,1.5.8,2.3,1.8,2.3s1.8-.4,2.7-1.5l2.9,2.9Z"/>
      <path class="cls-1" d="M135.6,60.4l-8.9,20.1c-1.2,2.7-3.5,4.6-6.3,4.6s-2.3-.2-3.5-.6c-.6-.2-1-.8-1-1.5v-2.1c0-.6.6-1,1.2-.7,1.2.6,2.1.7,2.9.7s1.9-.5,2.7-2.5l-8.7-18h5.4l4.8,10.3.9,2.7h0l.8-2.7,4.4-10.3h5.4Z"/>
    </g>
    <g>
      <path class="cls-1" d="M38.2,82.5l-4.2,9.2h-1.7l-4.2-9.2h2.1l2.6,5.9.3.9h0l.3-.9,2.6-5.9h2.1Z"/>
      <path class="cls-1" d="M44.8,91.6h-1.9v-9.2h1.9v9.2Z"/>
      <path class="cls-1" d="M59.3,91.6h-2.2l-1.3-2.4c-.4-.7-.9-1-2-1h-1.8l.2.2v3.3h-1.9v-9.2h4.4c1.8,0,3.5.9,3.5,2.9s-.7,1.9-1.6,2.2h0c.3.2.7.5.9,1l1.6,3.1ZM54.7,84.2h-2.7l.2.2v2l-.2.2h2.6c1.2,0,1.7-.6,1.7-1.2s-.5-1.2-1.6-1.2Z"/>
      <path class="cls-1" d="M72.6,91.7h-1.7v-.9c-.5.6-1.6,1-2.7,1-3.1,0-4.9-1.8-4.9-4.6s1.8-4.8,5-4.8,2.9.4,3.8,1.4l-1.3,1.3c-.6-.7-1.5-1-2.5-1-2.1,0-3,1.1-3,3.1s.9,2.9,2.9,2.9,2.4-.8,2.5-2l.2-.2h-3.2v-1.7h4.8v5.5Z"/>
      <path class="cls-1" d="M80,91.6h-1.9v-9.2h1.9v9.2Z"/>
      <path class="cls-1" d="M93.9,91.6h-1.6l-4.1-5.1-.7-1.1h0v6.1h-1.9v-9.2h1.6l4.2,5.1.6,1h0v-6.1h1.9v9.2Z"/>
      <path class="cls-1" d="M101.3,91.6h-1.9v-9.2h1.9v9.2Z"/>
      <path class="cls-1" d="M116.5,91.6h-2.1l-1-2v-.2c.1,0-4.5,0-4.5,0v.2c.1,0-.8,2-.8,2h-2.1l4.4-9.2h1.7l4.4,9.2ZM112.7,87.9l-.2-.2-1-2-.3-.8h0s-.3.8-.3.8l-1,2-.2.2h2.9Z"/>
    </g>
  </g>
</svg>