<?xml version="1.0" encoding="utf-8"?>
<!-- Generator: Adobe Illustrator 27.9.3, SVG Export Plug-In . SVG Version: 9.03 Build 53313)  -->
<svg version="1.1" id="Layer_1" xmlns="http://www.w3.org/2000/svg" xmlns:xlink="http://www.w3.org/1999/xlink" x="0px" y="0px"
	 viewBox="0 0 413 411" style="enable-background:new 0 0 413 411;" xml:space="preserve">
<path d="M407,70.7c0-35-31.6-66.7-66.7-66.7H73.7C38.6,4,7,35.6,7,70.7v266.7c0,35,31.6,66.7,66.7,66.7l133.3,0V256.6h-52.6l0-63.2
	H207v-33.2c0-44.8,33.6-85.1,75-85.1h53.9v66.7H282c-5.9,0-11.9,6.8-11.9,17.5v34.2l68.4,0l-5.3,63.2h-63.2V404l70.2,0
	c35,0,66.7-31.6,66.7-66.7V70.7z"/>
</svg>
