<?xml version="1.0" encoding="UTF-8"?>
<svg id="Layer_1" data-name="Layer 1" xmlns="http://www.w3.org/2000/svg" version="1.1" viewBox="0 0 615 613">
  <defs>
    <style>
      .cls-1 {
        fill: #000;
        stroke-width: 0px;
      }
    </style>
  </defs>
  <path class="cls-1" d="M356.3,348.3c-.2-5.9-2.5-11-8.3-13.2-3.2-1.2-3.5-2.9-3.5-5.7,0-19.7,0-39.5,0-59.2,0-10-1.3-20.1,4.9-29.1.6-.9.9-2.2,1-3.4,1.8-12.5,2.9-24.9-2.5-37.1-4.5-10.1-8.3-20.4-12.4-30.6-4.3-10.7-9-13.9-20.7-13.9-23.1,0-46.2,0-69.3,0-33,0-116,0-149,0-7.5,0-11.6,3.3-11.7,8.8,0,5.6,4.1,8.9,11.5,8.9,8.9,0,67.8,0,76.7,0,46.6,0,93.2,0,139.8,0,2.1,0,4.8-1.3,6,2,3.5,8.9,7.1,17.8,10.8,27.1H51.5c3.4-8.6,6.8-16.7,9.8-25,1.2-3.4,3.1-4.3,6.5-4.2,10.7.2,21.3.1,32,0,2.3,0,4.7.2,6.9-1.2,3.5-2.3,5.2-5.5,4.2-9.6-1.2-4.9-5.1-6.9-9.8-6.9-12.6-.1-25.3-.2-37.9,0-8.4.1-14,4.4-17.1,12.3-3.7,9.5-6.9,19.3-11.5,28.5-5.3,10.6-5.8,21.5-5.1,32.8.5,8.9,3.4,17,9.4,23.7,1.6,1.9,2.5,3.7,2.5,6.3,0,23.3,0,46.6,0,69.9,0,2.6-.3,4.2-3.3,5.2-5.8,2-8.5,6.8-8.7,12.8-.1,5.1,0,10.3,0,15.4,0,15.5,4.1,19.7,19.6,19.7,96,0,192,0,287.9,0,1.8,0,3.6,0,5.3,0,9-.8,13.9-5.8,14.2-14.9.2-6.5.2-13,0-19.5ZM290.9,223.6c.1-2.8,1.7-2.6,3.5-2.5,6.1,0,12.2,0,18.4,0s11.8,0,17.8,0c1.8,0,3.4-.4,3.5,2.5.4,9.2-1.7,17.4-9.9,22.6-7.7,4.9-15.7,4.9-23.4,0-8.3-5.2-10.3-13.4-9.9-22.6ZM233.9,221c6.1.3,12.2,0,18.3,0,5.7,0,11.4.2,17.1,0,3.2-.1,3.9,1.1,3.9,4.1.3,14.2-8.5,24.4-21.3,24.6-13.2.2-22.3-9.9-22.2-24.3,0-3.2.7-4.5,4.2-4.4ZM169,223.8c.3-2.5,1.2-2.8,3.3-2.8,12.2,0,24.5,0,36.7,0,5.9,0,1.5,4.6,3.1,5.8-.3,14.5-10.2,23.7-23.6,22.7-12.3-.9-20.8-12.4-19.5-25.7ZM118.6,221.1h11.2c5.7,0,11.4.3,17.1,0,3.9-.2,4.5,1.3,4.4,4.7-.1,12-6.4,21.1-16.7,23.5-9.6,2.3-19.8-2.4-24.3-11.3-.6-1.2-1.2-2.5-1.5-3.8-3.1-11.5-2-13,9.7-13ZM102.2,256.1c12.3,11.4,26.5,14.1,42.1,8.4,5-1.8,9.5-4.8,13.1-8.8,2.1-2.3,3.3-2,5.5,0,16.6,15.6,38.8,15.7,55.1.2,2.4-2.2,3.5-2.4,6,0,16.5,15.6,38.3,15.5,55.2,0,1.6-1.5,2.5-3,5.2-.7,14.2,12.3,23.7,14.5,42.5,9.9,0,5.9,0,11.7,0,17.5,0,15.4-.1,30.8,0,46.2,0,3.9-1,4.8-4.9,4.8-86.1-.1-172.1,0-258.2-.1-1.9,0-4.9,1.5-4.9-2.8.1-21.3,0-42.6,0-64.1,14.9,2.4,27.7-.6,38.1-11.5,2.6-2.8,3.7-.2,5.1,1.1ZM50.5,221.1c6.1,0,12.2,0,18.4,0s11.8,0,17.8,0c1.4,0,3-.7,3.6,1.8,2.2,9.1-3.8,21.1-12.9,25.1-9.8,4.3-21.2.7-27-8.4-3.1-4.9-3.3-10.4-3.4-15.9,0-2.8,1.6-2.6,3.4-2.6ZM332.5,365.3c-93.2-.2-186.4-.3-279.6,0-7,0-5.6-3.6-5.9-7.6-.3-4.2,0-6.5,5.6-6.5,46.8.3,93.6.2,140.4.2s93.2.2,139.8-.2c6.1,0,5.9,2.5,6,6.8,0,4.7,0,7.3-6.3,7.2Z"/>
  <path class="cls-1" d="M519.7,287.4c-10.1-18-20.5-35.9-30.6-53.9-3-5.3-7.1-7.9-13.4-7.8-22.7.2-45.4,0-68.1,0-9.8,0-14.2,4.2-14.2,14,0,21.1,0,42.2,0,63.3,0,9.8,4.3,14,14.1,14,16,0,32,0,48,0,15.6,0,31.2,0,46.8,0,17.4,0,25.9-14.5,17.5-29.7ZM499.8,299.4c-14-.2-28,0-42,0s-27.6-.1-41.4,0c-4,0-5.4-.7-5.3-5.1.3-15.4.2-30.8,0-46.2,0-3.3.3-4.9,4.3-4.8,18.3.2,36.7.2,55,0,3,0,4.5,1.1,5.9,3.6,8.8,15.8,17.7,31.6,26.9,47.2,2.9,4.9,1.1,5.3-3.4,5.2Z"/>
  <g>
    <path class="cls-1" d="M102.5,420.4c-15.8.7-28.5,14.2-27.8,29.4.7,15.9,13.9,28.3,29.4,27.7,15.9-.6,28.2-13.7,27.6-29.3-.6-15.8-13.9-28.5-29.3-27.8ZM103.6,459.7c-5.9.2-11.2-4.8-11.2-10.6,0-5.6,5.5-11,11.1-10.9,5.6.1,10.4,5.1,10.4,10.8,0,5.8-4.6,10.6-10.3,10.7Z"/>
    <path class="cls-1" d="M512.6,420.4c-15.5,0-28.5,12.9-28.6,28.5,0,15.7,12.7,28.6,28.4,28.7,15.5,0,28.7-12.9,28.7-28.4,0-15.4-13-28.7-28.5-28.8ZM512.6,459.7c-5.8,0-10.5-4.6-10.7-10.4-.2-5.9,4.8-11.2,10.6-11.2,5.7,0,11,5.5,10.9,11.1-.2,5.6-5.2,10.4-10.8,10.4Z"/>
    <path class="cls-1" d="M600.3,323.7c-11.7-9.3-23.2-19-34.9-28.4-2.8-2.3-4.9-5-6.7-8.1-15.5-27.4-31.4-54.7-46.7-82.2-5.3-9.6-12.7-13.7-23.5-13.6-34.4.2-68.7,0-103.1,0-15.6,0-21.7,6.1-21.7,22,0,72.3,0,144.6.1,216.9,0,4.9-1.2,6.2-6.1,6.1-65.4-.2-130.8-.2-196.1,0-4.1,0-5.6-1.2-6.9-5.1-6.9-21.1-26.2-35.1-50.2-36.7-19.2-1.3-41.9,11.1-49.2,29.7-4.3,10.9-10.2,13.7-20.3,11.9-.2,0-.4,0-.6,0-10,0-12.1-2.2-12.1-12.2,0-94.8,0-189.6,0-284.4,0-10,2.2-12.2,12.1-12.2,55.3,0,110.6,0,165.9,0s147.7,0,221.6,0c4.3,0,6.2,1.1,7.3,5.5,2.3,9.4,5.4,18.5,8.1,27.8,1.1,3.7,2.7,7.1,6.8,8.2,7.2,2,12.7-4.3,10.5-12.4-2.6-9.7-5.7-19.3-8.5-28.9-4.1-13.6-9.9-17.9-24-17.9-129.2,0-258.4,0-387.5,0-20.2,0-30,9.9-30,30.2,0,94.6,0,189.2,0,283.8,0,1.8,0,3.6,0,5.3.6,13.1,9.8,23.2,22.8,24.5,5.7.6,11.4.6,17.1.4,3.4,0,4.6.8,5.3,4.4,4.7,26.3,26.6,44.7,53.1,45,26.3.3,48.4-17.8,53.6-44.3.8-4.2,2.4-5.1,6.5-5.1,96.6.1,193.2.1,289.8,0,4.1,0,5.7,1,6.5,5.2,5,25.5,24.9,42.7,50.7,44.1,24.8,1.4,46.9-14.2,54.8-38.5,1.1-3.5-.1-8.6,3.2-10.1,3.3-1.5,7.8-.8,11.7-.5,15,1.2,26.1-3.9,31.7-18.6v-98.4c-2.3-5.6-6.3-9.7-11-13.5ZM102.8,485.6c-20.1-.3-36.6-17-36.3-36.8.2-19.9,16.9-36.5,36.7-36.6,20.1-.1,36.9,16.8,36.8,37-.1,20.5-16.8,36.7-37.2,36.4ZM512.3,485.6c-20.5-.2-36.7-16.7-36.3-37.2.3-20.2,17-36.5,36.9-36.2,20,.3,36.5,16.9,36.6,36.8,0,20.2-16.8,36.8-37.1,36.7ZM588.1,349.2c-5.9,0-11.9-.2-17.8,0-12.4.5-20.1,9.6-18.2,21.8,1,6.4,2.6,12.7,4.5,19,2.7,9,8.3,13.3,17.6,13.8,5.1.3,10.3.3,15.4,0,3.2-.1,4,1,3.9,4.1-.2,6.9-.1,13.8,0,20.7,0,4.9-2.4,7.3-7.1,7.6-1,0-2,0-3,0-11.3,1.6-18.2-.7-23.8-13.2-8.8-19.7-27-29-48.6-28.3-24.2.9-41.1,13.5-49.8,36.1-1.5,4-3,5.4-7.3,5.4-22.1-.2-44.2-.3-66.3,0-5.5,0-6.3-1.6-6.3-6.6.2-35.7.1-71.5.1-107.2s0-71.9-.1-107.8c0-4.7,1.2-5.8,5.8-5.8,33.6.2,67.1.2,100.7,0,4.6,0,7,1.5,9.2,5.4,15.7,28,31.7,55.8,47.5,83.7,2,3.5,4.4,6.5,7.5,9,12.7,10.3,25.4,20.7,38,31.1,1.3,1.1,3,1.8,3.5,3.8,1.3,5.2,0,7-5.4,7ZM593.6,378.6q0,7.7-7.7,7.7-12.1,0-14.8-11.7c-.2-.8-.2-1.6-.5-2.3-2.1-4.8.1-5.8,4.4-5.3,2.3.3,4.7,0,7.1,0q11.5,0,11.5,11.6Z"/>
  </g>
</svg>