<?xml version="1.0" encoding="utf-8"?>
<!-- Generator: Adobe Illustrator 27.9.3, SVG Export Plug-In . SVG Version: 9.03 Build 53313)  -->
<svg version="1.1" id="Layer_1" xmlns="http://www.w3.org/2000/svg" xmlns:xlink="http://www.w3.org/1999/xlink" x="0px" y="0px"
	 viewBox="0 0 615 613" style="enable-background:new 0 0 615 613;" xml:space="preserve">
<style type="text/css">
	.st0{fill:none;stroke:#000000;stroke-width:66.6667;stroke-linecap:round;stroke-linejoin:round;stroke-miterlimit:133.3333;}
</style>
<path class="st0" d="M462,146h0.3 M173.7,572.7h266.7c73.6,0,133.3-59.7,133.3-133.3V172.7C573.7,99,514,39.3,440.3,39.3H173.7
	C100,39.3,40.3,99,40.3,172.7v266.7C40.3,513,100,572.7,173.7,572.7z M432,306c0,69-56,125-125,125c-69,0-125-56-125-125
	c0-69,56-125,125-125C376,181,432,237,432,306z"/>
</svg>
