<?xml version="1.0" encoding="UTF-8"?>
<svg id="Layer_1" data-name="Layer 1" xmlns="http://www.w3.org/2000/svg" version="1.1" viewBox="0 0 615 613">
  <defs>
    <style>
      .cls-1 {
        fill: #020202;
      }

      .cls-1, .cls-2, .cls-3, .cls-4, .cls-5, .cls-6, .cls-7 {
        stroke-width: 0px;
      }

      .cls-2 {
        fill: #000;
      }

      .cls-3 {
        fill: #7d7d7d;
      }

      .cls-4 {
        fill: #6a6a6a;
      }

      .cls-5 {
        fill: #010101;
      }

      .cls-6 {
        fill: #626262;
      }

      .cls-7 {
        fill: #4f4f4f;
      }
    </style>
  </defs>
  <path class="cls-2" d="M13.2,400.3c3.5-6.6,3.2-14.1,5.3-21.1,14.8-49.3,47.2-80.4,97.2-91.8,27.4-6.3,52-16.6,71.7-37.1,4.6-4.8,9.9-5,13.5-1.1,3.5,3.7,2.9,8.8-1.7,13.6-21.1,21.7-46.9,34.3-76.3,40.6-48.3,10.3-78.5,39.9-89.5,87.9-6.8,29.7-2.5,58.8,9.7,86.5,20.4,46.4,54.4,78.9,102.3,95.8,36.3,12.9,72.4,12.5,107.2-5.7,4-2.1,7.7-4.8,11.7-7.1,5.3-3.2,10.4-2.5,13.1,1.7,2.8,4.3,1.5,9.1-3.7,12.7-18.8,13-39.6,20.7-62.4,23.2-1.2.1-2.7-.5-3.5,1.1h-20.6c-.6-.7-1.5-.6-2.3-.6-.8,0-1.7-.1-2.3.6h-5.7c-21.9-1.9-42.5-8.5-61.9-18.6-20.9-10.9-39.3-25.2-55.2-42.9-22.2-24.7-36.8-53-44.2-85.3-1.4-6-.7-12.1-2.3-18v-6.9c.7-.6.6-1.5.6-2.3,0-.8.1-1.7-.6-2.3v-13.7c.7-.8.7-1.5,0-2.3v-6.9Z"/>
  <path class="cls-4" d="M13.2,407.2c1.6.8,1.3,1.5,0,2.3v-2.3Z"/>
  <path class="cls-7" d="M13.2,423.2c1.1.5,1.1,1.3,1,2.3-.3.5-.7.5-1,0v-2.3Z"/>
  <path class="cls-6" d="M13.2,425.5c.3,0,.6,0,1,0,.1.9.3,1.9-1,2.2v-2.3Z"/>
  <path class="cls-3" d="M182.4,599.3c.3-1.3,1.3-1.1,2.2-1,.4.2.5.4.4.6-.1.2-.2.3-.4.3h-2.3Z"/>
  <path class="cls-6" d="M184.7,599.3c0-.3,0-.6,0-1,1-.2,1.9-.2,2.3,1h-2.3Z"/>
  <path class="cls-5" d="M375.8,210.3c2.5-.2,4.6,1.4,6.5,3.3,5.4,5.3,10.8,10.7,16.1,16.1,4.4,4.5,4.7,9.5,1.2,13.1-3.6,3.7-8.6,3.5-13.1-.8-5.8-5.5-11.4-11.2-16.9-17-2.6-2.8-3.8-6.1-2-9.9,1.6-3.2,4.1-4.9,8.2-4.9Z"/>
  <path class="cls-2" d="M376.7,262.7c-.3,2.9-1.5,5.5-4.5,7.1-2.9,1.6-6.1,1.8-8.6-.4-7.5-6.4-14.6-13.3-20.9-21-2.8-3.4-1.8-7.3,1.2-10.3,3.1-3,7-3.7,10.4-1,7.5,6.2,14.1,13.3,20.6,20.4,1.2,1.3,1.6,3,1.7,5.1Z"/>
  <path class="cls-2" d="M351.5,287.4c-.3,7-7.9,11.4-12.9,7.4-7.8-6.1-14.6-13.3-21-20.9-2.8-3.3-2-7.3,1-10.4,2.8-2.9,6.6-4,9.8-1.5,8.1,6.3,15.2,13.8,21.8,21.6.9,1.1,1,2.8,1.3,3.7Z"/>
  <path class="cls-2" d="M452.6,185.5c0,7.2-7.1,11.8-12.4,8-8.1-5.9-15-13.3-21.3-21.2-2.6-3.2-1.9-7.3,1.2-10.3,3.1-3,7.1-3.7,10.4-1,7.6,6.3,14.5,13.4,20.9,20.9.9,1.1,1,2.8,1.3,3.6Z"/>
  <path class="cls-2" d="M427.3,211.8c0,3.3-1.6,5.9-4.6,7.3-2.9,1.4-6.2,1.6-8.6-.6-6.9-6.5-13.7-13.1-20.1-20.1-3.1-3.3-2.6-7.5.5-10.8,3.1-3.3,7.4-3.8,10.8-1,7.4,6.2,14.2,13.2,20.5,20.4,1.2,1.3,1.4,3.1,1.4,4.8Z"/>
  <path class="cls-2" d="M188.1,156.8c-9.5-43.6-19-87.3-28.6-130.9-2-8.8-10.1-13.3-19.3-11.3-30.5,6.6-60.9,13.3-91.4,19.9-11,2.4-15.5,9.6-13.1,20.6,7.3,33.2,14.5,66.5,21.8,99.7.7,3.3.6,4.6-3.5,4.5-21.1-.6-32.5,6.6-40.7,25v10.3c1.2,3.1,2.2,6.4,3.8,9.4,6.3,11.8,18,16.6,34.8,14.5,20.3-2.5,32.7-19.2,28.6-38.8-6-28.3-12.2-56.5-18.5-84.7-2.8-12.5-2.9-12.6,9.7-15.4,24.7-5.5,49.4-10.9,74.1-16.2,2-.4,4.2-1.8,5,2.2,4.7,22.3,9.7,44.6,14.6,66.9.6,2.8,0,3.8-3.1,3.3-6.9-1-13.7.5-20.1,2.9-13.1,4.7-21.3,15.6-21.2,27.6,0,12.8,7.9,23.6,19.9,27.8,6.7,2.3,13.5,2,20.3.7,15.7-3,31.9-15.6,27.1-37.8ZM63.6,184.4c1.6,5.4-.2,10.2-5,13.3-4.3,2.8-9,4.1-12.8,4-8.8.5-13.8-3-15.2-9.7-1.2-5.8,2-10.9,8.8-13.5,4.3-1.7,8.7-2.7,13.4-2.5,5.6.3,9.3,2.9,10.9,8.3ZM137.3,47.7c-26,5.7-52,11.3-78,17-.4,0-.8.2-.9.2,0,0,0,0,0,0,0,0-.1,0,0,0-2.1.5-3.1.3-3.3-1.2,0-.6-.3-1.1-.5-1.6q-2.8-10.6,8.2-13.1c25.1-5.5,50.1-11,75.2-16.6,3.7-.8,5.7-.7,6.6,3.8,1.8,9.4,2.1,9.4-7.2,11.5ZM166.3,174.3c-4.4,2.8-9.3,4.4-16.6,4.1-5.6-.1-9.9-3.3-11.3-9.9-1.2-5.7,1.4-10.1,8.2-13.2,4.7-2.2,9.8-3.2,15-2.6,5.6.6,8.9,4,10,9.4,1.1,5.2-.9,9.3-5.3,12.2Z"/>
  <path class="cls-2" d="M587.5,434.4c-29.2-11.4-58.3-22.8-87.6-34.1-9.7-3.7-17.7,0-21.6,9.7-5,12.5-9.8,25.1-14.7,37.7-8.1,20.7-16.1,41.3-24.3,62.4-7.9-6.7-16.5-10.7-26.4-12-20.4-2.7-36.8,15.6-31.9,35.6,3.4,13.6,17.9,24.4,34.4,25.5,14.9,1,25.4-5.8,31.2-20.6,11.5-29.3,22.8-58.7,34.3-88.1.8-2.1.8-4.9,4.8-3.3,26.8,10.6,53.7,21,80.6,31.4,2.1.8,3,1.5,2,4.1-8.8,22.2-17.3,44.5-26.2,67.2-6.1-5.1-12.4-8.7-19.7-10.7-16.8-4.6-31.5,1.8-37.4,16.4-5.8,14.6.4,29.7,15.3,38,4.7,2.6,10,3.4,14.8,5.5h11.4c10.5-3.1,18.4-9,22.5-19.6,15.9-41.3,32-82.4,48-123.7,3.8-9.9.4-17.6-9.5-21.5ZM430.1,533.7c-1.7,5.5-6,8.5-12,8.4-6.4,0-11.8-2.5-16.5-6.5-4.6-3.9-5.4-9.1-2.9-14.3,2.5-5.2,7-6.6,12.3-6.1,5.2.5,9.9,2.5,14.2,5.3,5,3.3,6.6,7.9,5,13.2ZM532.7,573.5c-1.8,5.7-6,8.6-12,8.5-6.2-.1-11.5-2.5-16.2-6.3-4.5-3.6-5.6-8.8-3.5-13.8,2.3-5.4,6.7-7.7,13-6.9,5,.7,9.5,2.6,13.7,5.4,5.2,3.4,6.7,7.7,5,13.2ZM579.2,454.7c-1.1,2-1.6,4.3-2.5,6.3-.5,1.1-.7,2.8-2.7,2.2-1.1-.4-2.1-.8-3.2-1.2-25.8-10-51.6-20.1-77.5-30-3.6-1.4-4.4-2.7-2.8-6.4,3.9-9.1,3.6-9.2,12.6-5.7,24.4,9.5,48.8,19.1,73.3,28.4,3.6,1.4,4.9,2.8,2.9,6.4Z"/>
  <path class="cls-2" d="M585.8,88.8c.5-3.2,4.6-5.8,7.1-8.7,7.8-9.1,7.6-15.9-.8-24.3-11.7-11.7-23.4-23.5-35.2-35.2-8.7-8.7-15.3-8.8-24.8-.7-2.7,2.4-5.2,6.3-8.2,6.7-3.7.6-5.4-4.5-8.4-6.7-.3-.2-.6-.5-.9-.7-3.9-3-7.9-3-11.3.3-3.5,3.4-3.7,7.4-.7,11.3,1.6,2.1,3.7,3.9,5.4,5.8.8.9,2.7,1.8,1.2,3.2-4.8,4.4-9.2,9.6-14.9,12.2-2.4,1.1-5.8-5.1-8.9-7.8-.6-.5-1.1-1.1-1.6-1.6-4.3-3.7-9.4-3.9-12.8-.4-3.3,3.5-3.3,8.1.5,12.3,2.4,2.7,5,5.3,7.7,7.7,1.9,1.7,1.7,2.8-.2,4.4-3.8,3.1-7.6,6.4-11.1,9.9-2.1,2.1-3.5,1.9-5.4-.3-2.2-2.6-4.7-5-7.3-7.3-4.2-3.8-9.4-4-12.7-.5-3.4,3.5-3.3,8,.4,12.3,1.5,1.7,3,3.5,4.8,4.8,4.2,3.1,4.3,5.9-.2,8.8-1,.6-1.7,1.5-2.6,2.2-5,4-8.7,8.6-7.5,15.6.4,2.1-1,3.1-2.2,4.3-25.9,25.9-51.8,51.7-77.5,77.7-2.2,2.2-3.6,2.4-6.1.7-6.8-4.5-14.1-8.2-21.7-11.3-22.5-9.3-45.6-13.3-69.6-6.4-23,6.6-38.2,22.6-50.7,41.9-3.4,5.2-2.7,10.1,1.6,13.1,4.1,2.8,9.1,1.5,12.6-3.7,4.3-6.3,8.8-12.4,14.1-17.9,11.1-11.5,24.4-18.5,40.6-19.6,22.4-1.5,42.1,6.3,61.2,16.8,4.1,2.2.9,3.5-.5,4.9-28.7,28.7-57.4,57.4-86,86.2-2.1,2.1-4.1,2.7-7,2.7-35.8,0-64,26.5-66.2,62.1-2.2,34.2,24.1,65.6,57.5,68.7,36.5,3.5,69.3-20.7,72.5-55.6,1.1-12.3,5.5-20.5,14.2-27.8,1.8-1.4,3.3-3.2,4.9-4.8,24.5-24.5,49.1-49,73.9-73.8,9.3,15.5,15.7,31.8,17.6,49.7,2.2,20.5-3.6,38.3-17.6,53.5-7.4,8.1-16.7,13.8-25.9,19.4-35.1,21.3-57.7,51.6-66.6,91.9-3,13.4-6.4,26.6-13.3,38.6-2.7,4.6-5.6,9-8.2,13.7-2.4,4.3-1.5,8.2,2.4,11.1,4,2.9,7.9,1.8,11.2-1.5.9-.9,1.6-2.1,2.4-3.2,10.2-14.7,17.1-30.9,20.6-48.4,5.6-28.3,17.9-52.7,39.5-72.2,10.5-9.5,23.2-15.9,34.7-24,25.6-18,39.2-42.4,38.4-74.1-.6-22.9-8.7-43.4-20.2-62.8-1.9-3.2-1.8-4.9.9-7.6,16.2-15.9,32.1-32,48.2-48,6.7-6.7,7.6-11.2,3-15.5-4.1-3.9-8.9-2.8-15.2,3.4-48,48-95.9,95.9-143.9,143.9-1.4,1.4-2.9,2.7-4.5,4.3-7.5-16.9-19.3-28.7-35.8-36,.4-.8.5-1,.6-1.1,58.3-58.4,116.7-116.7,174.9-175.1,2.2-2.2,3.4-1.9,5.4.1,10.1,10.3,20.4,20.6,30.7,30.7,2.2,2.2,2.3,3.6.7,6.1-1.9,2.9-1.6,6.2.6,9,2,2.6,5.2,4.7,7.9,3.1,5.2-2.9,10.7-3.9,16.4-4.8,2.4-.4,4.3-2.4,6-4.2,2.9-3,5-8.4,8.6-8.6,3.6-.2,6,5.2,9.1,7.9,4.6,4,9.1,4.2,12.7.5,3.4-3.4,3.1-8.4-.6-12.8-3-3.5-9.2-6.1-8.6-10.3.6-4,5.7-7.3,8.8-10.8.6-.7,1.4-1.4,1.9-2.1,1.7-2.8,3.2-2.1,5.2,0,2.7,2.9,5.6,5.8,8.7,8.2,3.7,2.9,7.7,2.3,10.8-.9,3.2-3.2,3.3-7.2.7-10.9-1.2-1.7-2.7-3.2-4.2-4.6q-7.3-7.3-.7-14.9c2.3-2.6,4.2-6.5,7-7.3,3.3-.9,5,3.8,7.6,5.8,4.4,3.5,8.8,3.6,12.3.2,3.4-3.3,3.3-8.1-.1-12.3-2.3-2.9-7.4-4.9-6.9-8.4ZM293.7,367.7c-.7,27.2-22.9,48.6-49.4,47.8-27-.9-48.3-22.9-47.5-49.1.8-26.9,22.7-48.4,48.8-47.9,27,.5,48.7,22.7,48.1,49.2ZM577.8,71.3c-24.4,27.5-48.7,55.1-72.9,82.7-2.1,2.4-3.2,2.5-5.5.2-14.5-14.6-29.1-29.1-44-43.9,10.5-9.2,20.7-18.3,31-27.3,18.1-16,36.3-31.9,54.4-48,2.7-2.4,4.1-2.4,6.7.3,9.8,10.1,19.8,20.1,29.9,29.9,2.2,2.2,3,3.4.5,6.2Z"/>
  <path class="cls-2" d="M214.8,483.5c-16.1-16.5-32.5-32.6-48.8-48.9-12.5-12.5-24.9-25.1-37.6-37.5-9.3-9.1-20.5-11.6-32.6-6.7-11.6,4.7-17.5,14.1-18.4,27.1.3,7.5,2.6,14.9,8.4,20.7,29.3,29.4,58.6,58.7,88,88,1.1,1.1,2.3,2.1,3.5,2.9,9.4,6.4,19.3,7.6,29.7,2.9,19.3-8.8,23.2-32.8,7.8-48.5ZM200.6,516c-4.2,2.2-8.4,2.2-12.4-.4-1.9-1.2-3.6-2.8-5.2-4.4-27.4-27.3-54.7-54.7-82.1-82-3.5-3.5-6.5-7.1-6.2-12.3.6-9.7,11.2-14.8,19.3-9.4,1.7,1.1,3.2,2.6,4.7,4.1,27.4,27.3,54.7,54.7,82.1,82,3.3,3.3,6.2,6.7,6.2,12.3-.3,4-2.2,7.8-6.5,10.1Z"/>
  <path class="cls-1" d="M556.7,84.8c-4.5,0-8.3-3.6-8.5-8.1-.2-4.7,3.8-8.9,8.4-8.9,4.2,0,8.4,4,8.6,8.2.2,4.6-3.8,8.8-8.5,8.8Z"/>
  <path class="cls-1" d="M513.8,127.9c0,4.6-4.2,8.6-8.9,8.4-4.5-.2-8.1-3.9-8.1-8.5,0-4.8,4.1-8.7,8.7-8.5,4.3.2,8.3,4.4,8.3,8.6Z"/>
  <path class="cls-5" d="M531,110.6c-4.4,0-8.5-3.9-8.6-8.3,0-4.5,3.7-8.4,8.2-8.5,4.9-.2,8.7,3.6,8.7,8.5,0,4.6-3.8,8.4-8.3,8.4Z"/>
  <path class="cls-1" d="M544.6,56.2c-.2,4.5-4,8.2-8.6,8.1-4.8,0-8.6-4.1-8.3-8.9.3-4.5,4.4-8.2,8.8-8,4.4.2,8.3,4.5,8.2,8.8Z"/>
  <path class="cls-1" d="M493.2,107.7c-.2,4.5-4,8.2-8.7,8.1-4.9,0-8.6-4.1-8.3-8.9.3-4.5,4.3-8.2,8.8-7.9,4.4.2,8.3,4.4,8.1,8.7Z"/>
  <path class="cls-1" d="M511,73.3c4.8.3,8.2,4.4,7.7,9.3-.4,4.4-4.6,8-8.9,7.6-4.3-.4-8.1-4.6-7.9-8.9.2-4.7,4.4-8.4,9.1-8.1Z"/>
</svg>