<?xml version="1.0" encoding="UTF-8"?>
<svg id="Layer_1" data-name="Layer 1" xmlns="http://www.w3.org/2000/svg" version="1.1" viewBox="0 0 615 613">
  <defs>
    <style>
      .cls-1 {
        fill: #000;
        stroke-width: 0px;
      }
    </style>
  </defs>
  <path class="cls-1" d="M305.2,602.6c-5.6-3-6.9-7.7-6.9-13.8.2-37.1,0-74.2.2-111.3,0-5.1-.5-8-6.5-7.4-3.9.4-9-2.9-11.5-.3-2,2.1-.7,7.3-.7,11.2,0,27.8,0,55.6,0,83.5,0,6.9-3.2,10.5-8.8,10.3-5.5-.2-8.5-3.7-8.5-10.2,0-16.6,0-33.2,0-49.8,0-15.3,0-30.5,0-45.8,0-3.2-.6-5.1-4.1-5.6-2.1-.3-4-1.3-6-2q-8.6-3.1-8.6,6.3c0,15.6,0,31.3,0,46.9,0,7.6-2.8,11.1-8.7,10.9-5.8-.1-8.6-3.8-8.6-11.3,0-20.1,0-40.2,0-60.3,0-3-.7-4.9-3.4-6.5-5-2.8-9.7-6.1-15.2-9.7,0,2.5,0,4.3,0,6.1,0,31.7,0,63.4,0,95.1,0,5-1.2,8.8-6.5,10.2-5.9,1.5-10.8-2.6-10.9-9.3-.1-9.3,0-18.5,0-27.8,0-29.6,0-59.1,0-88.7,0-4.9.4-9.4,5.6-11.6,5-2.1,8.8,0,12.5,3.4,82.4,74,212.4,35.9,241.7-70.9,22.7-82.6-31.2-168.1-115.5-183.5-82.5-15-161,40.7-173.2,123.2-3.1,20.7-2.2,41.2,5.3,61,3.7,9.8,5.1,20,5,30.6-.3,29.2,0,58.3-.1,87.5,0,7.2-3.4,10.6-9.6,9.9-5.2-.5-7.7-3.7-7.8-10.2,0-29.8,0-59.5,0-89.3,0-4.1-.7-7.9-2.1-11.8-13.1-37.6-13.2-75.3.4-112.8,1.1-3.1,1.7-6.2,1.7-9.6,0-30.1,0-60.3,0-90.4,0-4.8.9-8.9,6.4-10.2,6.3-1.4,10.9,2.2,11,9,0,20.1,0,40.2,0,60.3,0,.7,0,1.4,0,3.6,6.2-7.8,11.6-14.7,17.7-21,1.7-1.7.9-4.1.9-6.1,0-37.1,0-74.2,0-111.3,0-4,.4-7.7,4.5-9.9,5.2-2.8,13.2.5,13.1,9.2-.4,31.7-.2,63.4-.2,95.1,0,1.9,0,3.7,0,6.3,6-3.8,11.4-7.4,16.9-10.7,2.4-1.5,1.6-3.7,1.6-5.7,0-20.3,0-40.6,0-60.9,0-5.1,1.2-9.3,7-10.3,6.1-1.1,10.3,2.5,10.3,9.1,0,17.6.1,35.2,0,52.7,0,4.3.7,5.6,5,3.5,4.3-2,10.7-2.3,12.9-5.5,2.3-3.3.7-9.3.7-14.1,0-28.2,0-56.4,0-84.6,0-4.6.9-8.5,5.8-10.2,6.2-2.2,11.6,2.1,11.6,9.4,0,25.1,0,50.2,0,75.3,0,5.6,0,11.2,0,16.8,0,2.7.2,4,3.7,3.7,14.9-1.2,14.9-1,14.9-16.1,0-35.4,0-70.7,0-106.1,0-7.6,3.4-11.2,9.7-10.6,5.3.6,7.7,3.7,7.7,9,0,14.9,0,29.8,0,44.6,0,24.2,0,48.3,0,72.5,0,3.9.9,5.8,5,5.3.8,0,1.5,0,2.3.1,3.8.3,9.2,2.4,11.1.7,2.8-2.6,1-8,1-12.1,0-27.6,0-55.3,0-82.9,0-7,3.6-10.8,9.5-10.1,5.1.6,7.8,4,7.8,10.3,0,21.1,0,42.1,0,63.2,0,10.8.1,21.6,0,32.5,0,3,.7,4.5,3.8,5.3,4.8,1.2,9.5,2.9,14.2,4.4,1.4-5.1.5-10.2.6-15.3.2-13.7,0-27.4,0-41.2,0-6.6,3-10,8.5-10,5.5,0,8.8,3.5,8.8,9.9,0,20.5,0,41,0,61.4,0,3,.6,4.9,3.5,6.4,5,2.8,9.7,6.1,15.2,9.7,0-2.7,0-4.7,0-6.7,0-31.5,0-63,0-94.5,0-7.4,4.5-11.5,10.7-9.8,5.1,1.4,6.7,5.2,6.7,10.2,0,21.4,0,42.9,0,64.3,0,15.8,0,31.7,0,47.5,0,2-.5,4.2,1.3,6,6.1,5.9,11.2,12.6,17.2,20.4,0-3.3,0-5.3,0-7.3,0-18.5,0-37.1,0-55.6,0-6.3,2.9-9.4,8.3-9.5,5.7,0,9,3.3,9,9.6,0,30.1,0,60.3,0,90.4,0,3,.5,5.7,1.5,8.4,14.7,39.2,14.7,78.4,0,117.6-1,2.7-1.5,5.5-1.5,8.4,0,29.8,0,59.5,0,89.3,0,4.5-.6,8.6-5.5,10.3-6.5,2.2-11.8-1.8-11.9-9.1,0-20.5,0-41,0-62.8-6.3,7.8-11.8,14.8-18,21.2-1.4,1.5-.6,3.7-.6,5.6,0,36.7,0,73.4,0,110.1,0,3.5.1,7.1-3,9.5-2.8,2.2-5.9,2.6-9.2,1.2-3.9-1.6-5.2-4.7-5.2-8.8,0-31.3,0-62.6,0-93.9,0-2.3,0-4.6,0-7.7-6,3.8-11.6,7.3-17.2,10.8-2.1,1.3-1.3,3.4-1.4,5.2,0,20.3,0,40.6,0,60.9,0,4.3-.8,8.2-5.4,9.8-6.4,2.3-11.9-1.7-11.9-8.9,0-16.8,0-33.6,0-50.4,0-2.1,0-4.2,0-6.9-5.8,1.9-11.2,3.8-16.6,5.5-3.1,1-1.9,3.4-1.9,5.3,0,30.5,0,61.1,0,91.6,0,1.4,0,2.7,0,4.1-.2,6.1-3.2,9.5-8.4,9.7-5.5.1-8.9-3.4-8.9-9.7,0-19.9,0-39.8,0-59.7,0-10.6-.1-21.3,0-31.9,0-3.3-.3-4.7-4.3-4.3-15.1,1.4-15.1,1.2-15.1,16.6,0,34.4-.2,68.8.1,103.2,0,6.9-1.3,11.8-8.4,13.8h-2.3Z"/>
  <path class="cls-1" d="M10.7,274.5c5-5.3,9.1-6.5,13.3-3.8,3.3,2.1,4.1,5.2,4.1,9,0,16.8,0,33.5,0,50.3,0,4.5.2,9.2-4.9,11.3-5.2,2.2-9.1-.3-12.5-4.1v-62.6Z"/>
  <path class="cls-1" d="M136,305.8c0,40.5,0,81.1,0,121.6,0,3.8-.2,7.3-4,9.5-5.7,3.3-12.6-.3-13.3-6.9-.2-1.5,0-3.1,0-4.6,0-79.7,0-159.5,0-239.2,0-1.9-.2-3.9.2-5.8,1.2-4.7,4.2-7.4,9.2-7,4.7.4,7.3,3.2,7.9,7.8.2,1.7,0,3.5,0,5.2,0,39.8,0,79.5,0,119.3Z"/>
  <path class="cls-1" d="M479,305.2c0-39.6,0-79.2,0-118.7,0-1.7-.1-3.5,0-5.2.6-4.6,3.1-7.4,7.8-7.8,5-.4,8,2.3,9.2,6.9.4,1.5.2,3.1.2,4.6,0,80.5,0,161,0,241.5,0,1.7.2,3.6-.3,5.2-1.3,4.5-4.5,6.7-9.1,6.3-4.3-.4-7.2-2.7-7.9-7.1-.3-1.7-.1-3.5-.1-5.2,0-40.2,0-80.3,0-120.5Z"/>
  <path class="cls-1" d="M568.3,306.4c0,27.4,0,54.8,0,82.2,0,7.7-5.5,11.9-12,9.4-4.5-1.8-5.5-5.4-5.4-9.8,0-24.5,0-49,0-73.6,0-30.5,0-61,0-91.5,0-5,1.5-8.8,6.6-10.1,6.2-1.5,10.7,2.7,10.8,10,0,24.7,0,49.4,0,74.1,0,3.1,0,6.2,0,9.3Z"/>
  <path class="cls-1" d="M46.7,305.8c0-27.6,0-55.2,0-82.8,0-6.6,3.5-10.4,9.1-10.2,4.9.2,8.2,3.7,8.2,9.3.1,8.5,0,17,0,25.5,0,46.7,0,93.4,0,140.2,0,6.9-2.1,10.1-7,10.9-6.2,1-10.3-2.9-10.4-9.9,0-27.6,0-55.2,0-82.8Z"/>
  <path class="cls-1" d="M532.3,306.5c0,21.2,0,42.4,0,63.7,0,3.7-.9,6.9-4.5,8.7-3.2,1.6-6.4,1.3-9.3-.6-2.9-1.9-3.6-4.7-3.6-8,0-42.8,0-85.6,0-128.5,0-6.3,3.3-10.1,8.6-10.1,5.3,0,8.7,3.8,8.7,10,0,21.6,0,43.2,0,64.8Z"/>
  <path class="cls-1" d="M82.6,305.3c0-20.3,0-40.5,0-60.8,0-1.5-.1-3.1,0-4.6.5-4.9,4.1-8.3,8.7-8.3,4.6,0,8.3,3.4,8.5,8.4.2,4.8,0,9.6,0,14.5,0,38.4,0,76.8,0,115.2,0,8.2-6.2,12.5-12.9,9.1-3.8-1.9-4.6-5.3-4.5-9.2,0-21.4,0-42.8,0-64.2Z"/>
  <path class="cls-1" d="M586.9,305.2c0-8.7,0-17.4,0-26,0-6.2,3.6-10,8.9-9.9,5,.1,8.4,3.8,8.4,9.7,0,17.9,0,35.9,0,53.8,0,5.9-3,8.9-8.3,9-5.5.1-9-3.1-9-8.9-.1-9.3,0-18.5,0-27.8Z"/>
  <path class="cls-1" d="M376,220.1c0-6.5-3.1-9.7-8.9-9.6-5.4,0-8.3,3.3-8.5,9.5-.1,5.8-.3,11.6,0,17.4.2,3.9-.8,5.7-4.7,7-12.2,4-24.3,8.5-36.5,12.8-11.3,4-22.7,8.1-34.2,12.3q-1.1-11.2,8.3-14.5c15.2-5.4,30.4-10.9,45.7-16.3,3.4-1.2,6.4-2.7,7.2-6.7,1.5-7.4-4.6-12.6-12-10-19.4,6.8-38.8,13.8-58.2,20.7-7.8,2.8-8.8,4.2-8.8,12.7,0,24.5,0,49.1,0,73.6v5.8c-2.2-.7-3.6-1.2-5.1-1.7-15.9-5-32.7,2.7-39.1,18.1-6.3,15.1-.2,32.5,14.2,40.3,21.4,11.7,47-3.5,47.3-28.4.3-23.4.2-46.7,0-70.1,0-4.1,1.3-5.6,4.9-6.9,20.2-7,40.3-14.2,60.4-21.4,10.5-3.8,10.5-3.8,10.5,7.1v29.6c-1.6-.6-2.3-.9-3-1.1-14.1-4.9-28.3-.8-36.8,10.4-8.6,11.3-8.9,26.2-.8,37.8,7.9,11.3,22.2,16.2,35.3,12.3,13.8-4.2,22.7-16.1,22.8-31.3.1-36.5,0-73,0-109.5ZM251.1,378.1c-8.2,0-14.7-6.3-14.7-14.5,0-8.1,6.6-14.8,14.6-14.7,7.7,0,14.3,6.7,14.5,14.3.2,7.9-6.4,14.7-14.5,14.8ZM344.3,345c-7.9,0-14.7-6.7-14.7-14.7,0-8,6.7-14.6,14.8-14.5,8,0,14.2,6.3,14.3,14.3.1,8.2-6.3,14.8-14.4,14.9Z"/>
</svg>