<?xml version="1.0" encoding="UTF-8"?>
<svg id="Layer_1" data-name="Layer 1" xmlns="http://www.w3.org/2000/svg" version="1.1" viewBox="0 0 615 613">
  <defs>
    <style>
      .cls-1 {
        fill: #000;
        stroke-width: 0px;
      }
    </style>
  </defs>
  <path class="cls-1" d="M119.2,82.9c-11.2-16.5-22.4-33.1-33.3-49.8-3.2-4.9-6.8-9.1-12.1-11.6h-7.8c-10.6,5.3-12.9,9.5-11.9,21.6.2,2.8.5,5.5.6,8.3.3,4.6,2.3,10.5.3,13.5-2.2,3.2-8.6.8-13.1,1.5-.2,0-.4,0-.6,0-13.7,1.4-20,14-12.4,25.4,12.8,19.3,25.8,38.4,38.8,57.5,4.9,7.3,11.9,9.5,19.3,6.7,7.1-2.7,11-9.6,9.9-17.9-.7-5.5-1.5-11-2.3-16.5-1.9-12.2-1.9-12.4,10.3-12.2,7.1.1,12.9-2,16.3-8.4,3.4-6.4,2-12.4-2-18.2ZM92.7,92.8c-11.3.2-18.1,8.2-16.5,19.4,1,7.3,2.1,14.7,3.1,22,0,.5,0,1-.2,2.3-12.1-17.8-23.8-35.2-36.3-53.7,5,0,8.8,0,12.6,0,11.2-.3,17.6-7.6,16.8-18.8-.4-5.2-.6-10.4-.8-15.5,0-.2,0-.4-.1-.7-.2-.8-.5-1.7-.4-2.5-.1-.7-.2-1.4-.3-2.1-.1-.7,0-1.6,1-1.1.5.3.7,1.1,1.1,1.6,10.8,16.1,21.6,32.1,33,49-5,0-9,0-12.9,0Z"/>
  <path class="cls-1" d="M575.9,66.9c-4.2-.6-8.5-.7-12.7-.7-2.6,0-3.9-.4-3.5-3.6.8-6.4.9-12.9,1.4-19.4.9-12.2-1.3-16.3-11.9-21.6h-6.7c-3.6,1.4-7.2,2.9-9.4,6.2-13,19.3-26.3,38.5-38.8,58.2-6.5,10.2,1,23,13.3,23.5,3.5.1,7,.2,10.6,0,3.1-.2,4.6.1,3.8,4.1-1.6,8.3-2.6,16.8-3.7,25.3-1,7.8,2.7,14.3,9.4,17.1,6.8,2.9,14.1,1.5,18.4-4.8,14-20.2,27.9-40.5,41.3-61.2,6.1-9.5,0-21.4-11.3-23.1ZM536.2,136c-.3,0-.5-.2-.8-.3,1-7.3,2-14.7,3.1-22,2.1-13-4.4-20.9-17.4-21-3.5,0-7,0-11.7,0,11.3-16.8,22.1-32.9,33-49,0,0,0,0,0,0,0,0,0,0,0,0,.4-.6.6-1.4,1.1-1.6,1-.5,1.1.4,1,1.1,0,.7-.2,1.4-.3,2.1.1.7-.2,1.6-.4,2.4,0,.2,0,.5-.1.7-.3,5.2-.5,10.4-.8,15.5-.8,11.2,5.6,18.5,16.8,18.8,3.7.1,7.4,0,12.6,0-12.4,18.4-24.2,35.8-36,53.3Z"/>
  <path class="cls-1" d="M503.9,355.6c-1.4-2.7-.9-4.5.6-7,13.7-23.3,13.7-46.7,0-70-1.5-2.5-1.7-4.3-.6-7,7.2-16.8,8.5-34.4.3-50.6-5.5-10.8-5.1-20-2.6-31.1,6.3-27.5-7.4-48.7-34.6-56.2-9.6-2.7-19.3-3.5-29.2-3.2-2.9,0-5.3-.5-7.7-2.1-9.8-6.5-20.8-9.8-32.6-9.2-3.6.2-5.1-1.1-6.8-4-11.1-18.6-32.3-27.5-53.5-22.7-12.5,2.8-22,10-29.8,20.3-11.7-15.4-26.8-22.7-45.9-21.3-19,1.4-37.7,16.6-42.1,34.4-1.2,4.8.7,8.7,5,10.3,4.2,1.6,8.5-.3,10.5-4.7.6-1.3.9-2.8,1.6-4.2,5.1-10.9,13.5-17.6,25.5-19.1,12.8-1.6,23.5,2.8,31,13.4,7.2,10.2,8.2,21.4,3,32.7-5.4,11.5-14.7,17.7-27.5,18.7-7.1.6-10.5,3.7-10.2,9.1.3,5.4,4,7.9,11.3,7.6,10.9-.4,20.2-4.9,29.1-11.6v135.5c-9.2-7.1-18.9-11.3-30-11.7-6.6-.2-10.3,2.7-10.5,7.9-.2,5.2,3.3,8.3,9.9,8.7,16.9,1.1,29.9,13.9,30.7,30.8.4,8,0,16,.2,23.9,0,2.4-1.1,3.6-3,4.7-38.4,21.9-78.2,40.4-121.1,51.5-3.2.8-6.4,1.8-9.8,1.3-13-2-24-7.7-32.1-18.1-11.1-14.2-13.4-29.9-8-47.4,12,9.2,25.2,12.8,39.5,12.6,5.3,0,8.8-3.1,9-7.8.2-4.5-3-8.1-8.2-8.8-2.2-.3-4.4-.2-6.7-.3-9.1-.7-17.3-3.7-24.3-9.7-20.2-17.5-23.2-46.6-6.8-68,3.5-4.6,4-8.6,1.1-13.7-6.4-11-7.9-22.9-5.1-35.4,7.1-31.9,47.9-52.9,79.1-25.1,5.2,4.7,10.1,4.6,13.6.4,3.1-3.9,2.1-8.8-2.7-13-10-8.8-21.4-14.6-34.6-16.4-3.3-.4-4.2-1.5-4-4.8,1-14.1,7.4-25,19.1-32.9,6-4.1,7.6-8.3,4.7-12.8-2.9-4.6-8.1-5.1-14.1-1-16.7,11.5-25.7,27.3-26.3,47.7,0,2.8-.2,4.6-3.6,5.6-39.9,11.6-59.1,51.8-43.3,90.3,1,2.3,1,3.9-.4,6.1-8.3,12.7-11.7,26.8-9.9,41.8.6,5.1-1,8.3-3.7,12-14.3,19.6-26.6,40.1-30.6,64.6-3.2,20.1,5.1,38.4,22.1,47.7,9.3,5.1,19.3,7.3,29.8,8.1,10.9.8,21.7.2,32.7-1-.5,3.8-1.2,7.1-1.3,10.4-1.5,32.5,27.1,57.6,59.2,52.1,2.1-.4,4.5-2.3,6.8,1.1,8.3,12.3,20.5,18.6,34.8,20.4,17.5,2.2,34.5,1,49.1-10.6,2.8-2.3,5.3-7.1,7.9-7.1,2.6,0,5.1,4.8,7.9,7,14.8,11.6,31.9,12.8,49.6,10.5,13.6-1.8,25.2-7.6,33.3-18.9,2.1-3,4.1-3.2,7.3-2.7,37.7,6.6,68.2-27.1,57.5-63.9-1-3.5-.7-4.7,2.8-5.9,12.6-4.3,22.8-12.1,30.7-22.9,4-5.4,3.9-10-.1-13.3-4.3-3.5-8.8-2.4-13.2,3.2-18.2,23.1-45.8,26.8-69.8,9.5-5.2-3.8-10.1-3.5-13.2.8-2.9,4-1.7,8.6,3.1,12.5,10,8,21.4,12.3,34,14,8.1,1,9,1.8,10.5,10.1.7,3.7,1,7.3.4,11-2.9,17.7-17.6,30-35,29.1-17.3-.9-31.1-14.8-32.2-32.4-.4-6.5-3.7-10.1-8.8-9.8-5.1.3-8.2,4.2-7.8,10.7.7,13.6,6.1,25,16,34.4,5.9,5.6,5.9,6-.7,11-1.6,1.2-3.3,2.4-5.2,3.2-10.4,5.1-21.6,5.3-32.6,3.4-16.7-2.9-24.9-11.6-25.7-28.4-.8-17-.4-34.1-.2-51.2.1-8.1,3.5-15.1,9.1-20.9,6.4-6.6,14.3-9.6,23.4-10.1,5.3-.3,8.4-3.7,8.3-8.5-.1-4.7-3.6-7.9-8.8-8.1-1.7,0-3.3.2-5,.4-9.9,1.1-18.7,5.2-27.2,11.9,0-4.9.3-8.8,0-12.6-.4-3.9,1.3-5.8,4.5-7.8,11.9-7.5,23.8-15.1,35.3-23.1,41.9-29.4,80.6-62.5,112.3-103,7.6-9.7,14.3-20,20.9-31.3,5.8,15.1,5.7,29.2-1.7,42.6-3.3,6-3.2,10.5,1.1,16.1,9.7,12.7,12.3,27.2,8,42.6-6,21.2-21.3,32.9-44.4,34.3-6.7.4-10.7,3.9-10.4,9,.4,5,4.3,7.7,10.9,7.7,13.7-.1,26.3-3.9,37.4-12.3,1.9,2.9,2,6.1,2.7,9.1,1.3,5.4,5.1,8.3,9.9,7.4,4.7-.9,7.4-5.3,6.5-10.6-1-5.5-2.2-10.9-4.8-15.9ZM94.2,428.2c-11.5-7.6-13.1-19.1-11-31.5,2.7-15.8,12.6-35.7,24.7-51.1,3.3,3.4,4.5,6.5,2.4,11.6-10.7,25.7-3.8,54.9,16.8,73.6,1.6,1.4,3.2,2.8,5.8,5-14.2.4-27.2-.2-38.7-7.7ZM298.6,491.6c-.2,13.2-7.8,22.2-20.6,25.8-10.9,3-22,2.9-32.9-.4-3.4-1-6.5-2.6-9.4-4.7-7.1-5.3-7.1-5.9-.9-11.8,9.8-9.4,14.9-21,15.7-34.6.3-5.9-2.9-9.9-7.9-10.2-5-.3-8.3,3.2-8.8,9.2-1.5,18.5-14.8,32-32.3,32.9-17.2.9-31.9-11-34.9-28.5-.5-2.9-.5-5.9-.2-8.9,1.3-10.7,3-12.3,13.3-15,38.7-10.1,75.1-26,110.1-45,2.7-1.5,5.4-2.9,8.8-4.7,0,32.6.3,64.2-.1,95.7ZM475.4,215c-15,27.3-35.1,50.4-57.2,72-30.2,29.5-63.8,54.8-99.4,77.3-.7.5-1.6.8-3.1,1.6v-109.4c2.9,1.9,5.4,3.6,8,5.1,7.2,4.2,15,6.3,23.2,6.7,5.6.2,9.3-2.9,9.6-7.8.3-5.1-2.7-8.1-8.5-8.8-21.3-2.5-32.4-14.8-32.4-36.2,0-24.3-.1-48.6,0-72.9.1-21.5,15.5-36.1,36.2-34.2,12.9,1.2,21.8,8.4,26.8,20.4,3.2,7.6,4.9,8.7,13,7.6,24.8-3.3,46.9,14,48.4,37.7.2,3.9-.3,5.8-4.9,6.3-13.1,1.6-24.2,7.7-34,16.4-5,4.4-5.7,9-2.3,13,3.5,4,8,3.9,13.2-.4,19.6-16.4,41.9-17.5,61-3.2,3.4,2.6,4.6,4.5,2.2,8.8ZM484,193.3c-7.9-5.6-15.8-9.8-24.8-11.9-2-.5-2.5-1.7-2.4-3.6.3-10.6-2.7-20.4-7.7-29.8,30.4.9,42.7,18.4,34.9,45.2Z"/>
  <path class="cls-1" d="M121.1,511.8c-3-5.5-7.8-8.2-14.1-8.2-3.3,0-6.7-.2-10,0-3.1.2-4.5-.1-3.8-4.1,1.6-8.3,2.6-16.8,3.7-25.3,1-7.8-2.7-14.3-9.4-17.1-6.8-2.9-14.1-1.4-18.4,4.8-14,20.2-27.9,40.5-41.3,61.2-6.1,9.4.1,21.4,11.3,23.1,4,.6,8.1.7,12.2.7,3.2,0,4.5.5,4,4.3-.8,7.2-1,14.4-1.4,21.6-.5,9.3,3.1,15.3,10.7,17.9,7.5,2.5,13.9,0,19.3-8,3.2-4.7,6.4-9.5,9.6-14.3,8.9-13.2,17.7-26.4,26.6-39.7,3.6-5.4,4.1-11.1,1-16.8ZM72.7,569.2c-.4.6-.6,1.4-1.1,1.6-1,.5-1.1-.4-1-1.1,0-.7.2-1.4.3-2.1-.1-.7.2-1.6.4-2.4,0-.2,0-.5.1-.7.3-5.2.5-10.4.8-15.5.8-11.2-5.6-18.5-16.8-18.8-3.7-.1-7.4,0-12.6,0,12.2-18.1,23.8-35.2,35.3-52.3.4.1.8.3,1.2.4-.9,6.8-1.7,13.6-2.8,20.4-2.3,14,4.1,21.5,18.4,21.6,3.1,0,6.3,0,10.7,0-11.3,16.8-22.1,32.9-33,49Z"/>
  <path class="cls-1" d="M585.9,520.8c-12.6-18.9-25.4-37.8-38.2-56.6-5.3-7.8-12.5-10.3-20-7.2-7.4,3-10.8,10-9.4,19.2,1.4,8.9,2.6,17.9,3.9,27.3-4.7,0-9.1,0-13.5,0-6.5-.1-11.6,2.5-14.8,8.1-3.1,5.6-2.8,11.4.8,16.8,12.4,18.6,24.9,37.2,37.4,55.8,4.4,6.5,11,8.7,17.9,6.4,7.2-2.3,11.3-8.1,11.1-16.1-.1-5-.7-10-.9-15-.2-4-2-9.3,0-11.8,2-2.7,7.6-.8,11.7-1.2.6,0,1.1,0,1.7,0,14.1-1.3,20.3-14,12.4-25.7ZM559.6,530.2c-11.2.3-17.6,7.6-16.8,18.8.4,5.2.6,10.4.8,15.5,0,.2,0,.5.1.7.2.8.5,1.7.4,2.4.1.7.2,1.4.3,2.1.1.7,0,1.6-1,1.1-.5-.3-.8-1.1-1.1-1.6-10.8-16-21.6-32.1-33-49,4.9,0,8.9,0,12.9,0,11.3-.2,18.1-8.2,16.6-19.3-1.1-7.9-2.3-15.7-2.7-24,11.8,17.4,23.5,34.8,36.1,53.4-5,0-8.9,0-12.7,0Z"/>
</svg>