<?xml version="1.0" encoding="utf-8"?>
<!-- Generator: Adobe Illustrator 27.9.3, SVG Export Plug-In . SVG Version: 9.03 Build 53313)  -->
<svg version="1.1" id="Layer_1" xmlns="http://www.w3.org/2000/svg" xmlns:xlink="http://www.w3.org/1999/xlink" x="0px" y="0px"
	 viewBox="0 0 24.3 24" style="enable-background:new 0 0 24.3 24;" xml:space="preserve">
<path d="M11.2,13.3l-5.8,8.1C5.1,21.8,4.6,22.1,4,22c-0.6-0.1-1.4-0.3-2.2-0.9s-1.3-1.3-1.5-1.8c-0.2-0.5-0.2-1,0.1-1.4l5.8-8.1
	c0.3-0.4,0.6-0.7,1.1-0.9l1.1-0.6C8.7,8.1,8.9,8,9.1,7.8c0.6-0.6,2-2.3,4.7-5l0-0.2c0,0,0-0.1,0.1-0.1l0.1,0c0.1,0,0.1-0.1,0.1-0.1
	l0-0.2c0-0.1,0-0.1,0.1-0.1c0,0,0,0,0,0c0.2,0,0.5,0,1,0.4S15.9,3,16,3.2c0,0.1,0,0.1-0.1,0.2c0,0,0,0,0,0l-0.2,0
	c-0.1,0-0.1,0.1-0.1,0.1l0,0.2c0,0,0,0.1-0.1,0.1l-0.2,0.1c-1.7,3.4-2.8,5.3-3.2,6c-0.1,0.2-0.2,0.5-0.3,0.7L11.7,12
	C11.6,12.5,11.5,12.9,11.2,13.3L11.2,13.3z M23.9,17.9l-5.8-8.1c-0.3-0.4-0.6-0.7-1.1-0.9l-1.1-0.6c-0.2-0.1-0.4-0.3-0.6-0.5
	c-0.2-0.2-0.4-0.4-0.6-0.7c0,0-0.1,0-0.1,0c0,0,0,0,0,0c-0.6,1.1-1.1,2.2-1.7,3.2c-0.1,0.1-0.1,0.3-0.2,0.5c-0.1,0.4-0.1,0.7,0,1.1
	l0,0.1c0.1,0.5,0.3,0.9,0.5,1.3l5.8,8.1c0.3,0.4,0.8,0.6,1.3,0.6c0.8-0.1,1.6-0.4,2.2-0.9c0.7-0.5,1.2-1.1,1.5-1.8
	C24.3,18.9,24.2,18.3,23.9,17.9L23.9,17.9z M8.5,3.4l0.2,0c0.1,0,0.1,0.1,0.1,0.1l0,0.2c0,0,0,0.1,0.1,0.1L9,3.9
	c0.3,0.6,0.6,1.2,0.9,1.7c0,0.1,0.1,0.1,0.1,0c0.4-0.5,1-1,1.6-1.7c0.1-0.1,0.1-0.1,0-0.2c-0.3-0.3-0.6-0.7-1-1l0-0.2
	c0,0,0-0.1-0.1-0.1l-0.1,0c-0.1,0-0.1-0.1-0.1-0.1l0-0.2c0-0.1,0-0.1-0.1-0.1c0,0,0,0,0,0c-0.2,0-0.5,0-1,0.4C8.6,2.7,8.4,3,8.4,3.2
	C8.4,3.3,8.4,3.3,8.5,3.4C8.5,3.4,8.5,3.4,8.5,3.4L8.5,3.4z"/>
</svg>
